<?xml version="1.0" encoding="UTF-8" standalone="no"?>
<svg width="38px" height="28px" viewBox="0 0 38 28" version="1.1" xmlns="http://www.w3.org/2000/svg" xmlns:xlink="http://www.w3.org/1999/xlink">
    <!-- Generator: Sketch 39.1 (31720) - http://www.bohemiancoding.com/sketch -->
    <title>Shape</title>
    <desc>Created with Sketch.</desc>
    <defs></defs>
    <g id="Page-1" stroke="none" stroke-width="1" fill="none" fill-rule="evenodd">
        <g id="Artboard" transform="translate(-757.000000, -32.000000)" fill="#0FAEE2">
            <g id="1469725960_Cargo" transform="translate(757.000000, 32.000000)">
                <g id="Layer_1">
                    <path d="M32.4032258,23.3333333 C32.4032258,25.9105 30.3317339,28 27.7741935,28 C25.2166532,28 23.1451613,25.9105 23.1451613,23.3333333 L13.8870968,23.3333333 C13.8870968,25.9105 11.8156048,28 9.25806452,28 C6.70052419,28 4.62903226,25.9105 4.62903226,23.3333333 C2.07264919,23.3333333 0,21.2438333 0,18.6666667 L0,16.331 L4.31715121,9.33333333 C5.50941633,6.75616667 8.54837601,4.66666667 11.1047591,4.66666667 L16.2016129,4.66666667 L16.2016129,0 L37.0322581,0 L37.0322581,14 L37.0322581,16.3333333 L37.0322581,18.6666667 C37.0322581,21.2438333 34.9596089,23.3333333 32.4032258,23.3333333 L32.4032258,23.3333333 Z M27.7741935,25.6666667 C29.0500706,25.6666667 30.0887097,24.62075 30.0887097,23.3333333 C30.0887097,22.0459167 29.0500706,21 27.7741935,21 C26.4983165,21 25.4596774,22.0459167 25.4596774,23.3333333 C25.4596774,24.62075 26.4983165,25.6666667 27.7741935,25.6666667 L27.7741935,25.6666667 Z M9.25806452,25.6666667 C10.5339415,25.6666667 11.5725806,24.62075 11.5725806,23.3333333 C11.5725806,22.0459167 10.5339415,21 9.25806452,21 C7.9821875,21 6.94354839,22.0459167 6.94354839,23.3333333 C6.94354839,24.62075 7.9821875,25.6666667 9.25806452,25.6666667 L9.25806452,25.6666667 Z M34.7177419,2.33333333 L18.516129,2.33333333 L18.516129,4.66666667 L18.516129,14 L34.7177419,14 L34.7177419,2.33333333 L34.7177419,2.33333333 Z M34.7177419,16.3333333 L16.2016129,16.3333333 L16.2016129,14 L16.2016129,7 L11.1047591,7 C9.45364113,7 7.21810786,8.58141667 6.41468145,10.3200417 L6.3559506,10.4454583 L6.28246472,10.5662083 L4.16468246,14 L2.31451613,16.3333333 L2.31451613,18.6666667 C2.31451613,19.9540833 3.35315524,21 4.62903226,21 L5.27102117,21 C6.07242238,19.6099167 7.54821573,18.6666667 9.25806452,18.6666667 C10.9679133,18.6666667 12.443996,19.6099167 13.2451079,21 L23.7871502,21 C24.5885514,19.6099167 26.0643448,18.6666667 27.7741935,18.6666667 C29.4840423,18.6666667 30.960125,19.6099167 31.7612369,21 L32.4032258,21 C33.6791028,21 34.7177419,19.9540833 34.7177419,18.6666667 L34.7177419,16.3333333 L34.7177419,16.3333333 Z" id="Shape"></path>
                </g>
            </g>
        </g>
    </g>
</svg>