<?xml version="1.0" encoding="UTF-8" standalone="no"?>
<svg width="213px" height="50px" viewBox="0 0 213 50" version="1.1" xmlns="http://www.w3.org/2000/svg" xmlns:xlink="http://www.w3.org/1999/xlink">
    <!-- Generator: Sketch 3.8.3 (29802) - http://www.bohemiancoding.com/sketch -->
    <title>blindsave-logo</title>
    <desc>Created with Sketch.</desc>
    <defs></defs>
    <g id="Page-1" stroke="none" stroke-width="1" fill="none" fill-rule="evenodd">
        <g id="Artboard-1" transform="translate(-63.000000, -127.000000)">
            <g id="blindsave-logo" transform="translate(63.000000, 127.000000)">
                <g id="Group">
                    <g id="Page-1">
                        <g id="blindsave-www-1-landing-v2">
                            <g id="Group">
                                <path d="M0.0541229508,41.1055501 C0.0174590164,41.1326984 0.0192049181,41.1300712 0.028807377,41.1502135 C0.203397541,41.3183579 4.01208197,43.5716694 7.30747131,45.4773071 C11.2322582,47.7472578 14.7554877,49.8744609 15.7864427,49.916497 L15.7925533,49.916497 L15.7969181,49.9173728 L15.8004098,49.916497 C16.5956681,49.9795512 19.914627,47.9372961 23.7608484,45.6813574 C27.7214262,43.3597373 31.1442664,41.5154023 31.4201189,40.8682211 L31.4201189,28.5682759 L26.8048279,25.4339573 L0.0541229508,41.1055501 L0.0541229508,41.1055501 Z" id="Fill-1" fill="#41B6E6"></path>
                                <path d="M23.6534754,4.87829229 C19.8308238,2.68978653 16.5162295,0.591483306 15.7323197,0.665922277 L15.7000205,0.665922277 C14.8619877,0.640525452 11.3815328,2.91047619 7.64617623,5.035052 C3.64020492,7.31376026 0.18157377,9.18787079 0,9.8184127 L0,39.6053859 L31.4201189,21.1541544 L31.4201189,9.8184127 C31.2699713,9.19837984 27.5442172,7.10445539 23.6534754,4.87829229 L23.6534754,4.87829229 L23.6534754,4.87829229 Z" id="Fill-2" fill="#C5299B"></path>
                                <polygon id="Fill-3" fill="#333333" points="77.6288976 41.3025944 63.3404385 41.3025944 63.3404385 9.44183905 71.1385082 9.44183905 71.1385082 34.7151833 77.6288976 34.7151833"></polygon>
                                <polygon id="Fill-4" fill="#333333" points="79.5467702 41.3025944 87.342221 41.3025944 87.342221 9.44183905 79.5467702 9.44183905"></polygon>
                                <polygon id="Fill-5" fill="#333333" points="111.808414 41.3025944 103.907336 41.3025944 98.7420863 25.7597373 98.7420863 41.3025944 91.2678814 41.3025944 91.2678814 9.44183905 98.7935903 9.44183905 104.333336 24.7622551 104.333336 9.44183905 111.808414 9.44183905"></polygon>
                                <path d="M122.830291,35.3080679 L123.004008,35.3080679 C125.054569,35.3080679 125.562627,34.8938369 125.788721,34.4918664 C126.077668,33.9742967 126.21734,32.6545375 126.21734,30.4572742 L126.21734,19.4814669 C126.21734,18.0172086 126.171073,17.0626382 126.077668,16.6414012 C125.979898,16.1903887 125.737217,15.8374603 125.377561,15.6220252 C125.001319,15.3978325 124.334385,15.3093815 123.004008,15.3093815 L122.830291,15.3093815 L122.830291,35.3080679 L122.830291,35.3080679 Z M125.598418,41.3025944 L115.500996,41.3025944 L115.500996,9.44183905 L121.420476,9.44183905 C123.306049,9.44183905 124.921881,9.48650246 126.223451,9.57232619 C127.793016,9.67654079 130.797713,10.4323152 132.109758,12.6050575 C133.537033,14.971341 133.734319,17.8595731 133.734319,20.6278271 L133.734319,31.9066448 C133.734319,34.7975041 132.935569,37.6139244 131.699471,39.0825616 C130.058323,41.0398687 127.6935,41.3025944 125.598418,41.3025944 L125.598418,41.3025944 L125.598418,41.3025944 Z" id="Fill-6" fill="#333333"></path>
                                <path d="M145.293061,41.9777997 C143.066164,41.9777997 140.970209,41.5224083 139.540315,40.7272249 C138.061537,39.9048933 137.089069,38.8452326 136.652594,37.5788944 C136.238815,36.379989 135.99177,35.1329174 136.038037,32.6247619 L136.058115,31.5256924 L143.027754,31.5256924 L143.068783,33.1808648 C143.149967,34.578566 143.392648,35.0041817 143.839598,35.3334647 C144.128545,35.5453968 144.602557,35.6741325 145.10625,35.6741325 C145.31052,35.6741325 146.0115,35.6355994 146.43139,35.1451779 C146.776205,34.7405802 146.911512,34.029469 146.92286,33.4970115 C146.953414,31.7244883 146.779697,30.9687137 146.17736,30.2558511 C145.662319,29.6612151 144.423602,28.6961357 142.394865,27.3089437 C140.419377,25.9471483 139.090746,24.9426601 138.446508,24.323503 C137.821476,23.7183579 137.302943,22.8697537 136.901385,21.8004598 C136.498082,20.7224083 136.309524,19.3255829 136.340078,17.6467652 C136.385471,15.222682 136.720685,13.4291406 137.33786,12.3169348 C137.950672,11.2143624 138.938852,10.337734 140.277959,9.71419817 C141.626668,9.08453198 143.273927,8.7657581 145.173467,8.7657581 C147.341877,8.7657581 149.38109,9.14408317 150.766463,9.80352492 C152.19723,10.4839847 153.147873,11.3483525 153.592205,12.3703558 C154.044394,13.4116256 154.25041,15.2183033 154.205016,17.739595 L154.172717,19.442058 L147.759148,19.442058 L147.689311,17.23341 C147.658758,16.5582047 147.541783,16.0073563 147.073881,15.5265682 C146.793664,15.2384456 146.236721,15.059792 145.617799,15.059792 C145.142041,15.059792 144.72477,15.1675096 144.441935,15.3601752 C143.94086,15.7017187 143.636201,16.3620361 143.624852,17.1291954 C143.605648,18.1897318 143.735717,18.4454516 143.991492,18.9551396 L144.027283,19.0269513 C144.3075,19.6154571 145.070459,20.2836563 146.361553,21.0770881 C149.909226,23.2655939 152.161439,25.0801533 153.057959,26.4717241 C153.950988,27.856289 154.374369,30.13237 154.317627,33.2369129 C154.277471,35.364116 153.994635,36.886174 153.428963,38.0272797 C152.825754,39.2349425 151.772102,40.2525671 150.459185,40.8927422 C148.982152,41.6126109 147.244106,41.9777997 145.293061,41.9777997 L145.293061,41.9777997 L145.293061,41.9777997 Z" id="Fill-7" fill="#333333"></path>
                                <polygon id="Fill-8" fill="#333333" points="191.344709 41.2973399 179.930004 41.2973399 175.195992 9.43833603 182.118492 9.43833603 182.721701 13.9580952 185.513398 32.4636234 187.850287 13.9405802 188.35136 9.43833603 195.38036 9.43833603"></polygon>
                                <polygon id="Fill-9" fill="#333333" points="212.84025 41.3025944 197.530439 41.3025944 197.519963 9.44183905 212.889135 9.44183905 212.87866 16.1404707 205.326762 16.1404707 205.326762 22.0973399 212.525988 22.0973399 212.525988 28.7513082 205.326762 28.7513082 205.326762 34.904346 212.84025 34.904346"></polygon>
                                <path d="M49.824541,15.2025397 L49.824541,22.3048933 L50.8650984,22.3005145 C51.7092418,22.3005145 52.4966435,21.7601752 52.8117787,21.2522387 C53.0256516,20.8975588 53.0422377,20.5980514 53.0282705,19.2266229 C53.0256516,19.0567269 53.0256516,18.7598467 53.0256516,18.4699726 L53.0239057,17.8446852 C53.0151762,16.8752271 53.0151762,16.7762671 52.734086,16.1509798 C52.5062459,15.6430433 52.1911106,15.498544 51.8620082,15.3873235 C51.5084631,15.2655939 51.1383319,15.1964094 50.2906967,15.1964094 L49.824541,15.2025397 L49.824541,15.2025397 Z M49.824541,28.4351614 L49.824541,35.4998577 L50.0034959,35.4946032 C51.243086,35.4543186 51.9685082,35.3448494 52.4896598,34.8631856 C52.9339918,34.3929064 53.0239057,33.569699 53.0239057,32.3173728 L53.0239057,31.7025944 C53.0239057,30.390717 52.9462131,29.5841489 52.5289427,29.0858456 C52.061914,28.5236125 51.4962418,28.4842037 50.2610164,28.4482978 L49.824541,28.4351614 L49.824541,28.4351614 Z M52.593541,41.3008429 L42.4952459,41.3008429 L42.4952459,9.44008754 L42.9142623,9.43746032 C43.8317336,9.4348331 45.6911189,9.42870278 47.5845492,9.42870278 C50.7690738,9.42870278 52.6363156,9.44621786 53.1382623,9.47949643 C54.3752336,9.56356873 57.6610205,9.78338262 59.1214672,12.0778544 C59.8678402,13.2504871 60.3252664,14.1455063 60.3252664,17.6143624 C60.3252664,18.9910454 60.3252664,19.9850246 60.2720164,20.5901697 C60.1498033,21.962474 59.8739508,22.5684948 59.4680287,23.0992009 C58.9905246,23.725364 58.2991476,24.6300164 56.941709,25.1046744 C58.4335819,25.576705 59.1624959,26.4585879 59.8276844,27.4000219 C60.384627,28.1899507 60.6316721,29.8442474 60.6316721,32.7666338 C60.6316721,32.7788944 60.6307992,33.997942 60.5400123,35.2739135 C60.4466065,36.5875424 59.7054713,38.2374603 58.6972131,39.3803175 C57.207959,41.0687685 54.884164,41.3008429 52.593541,41.3008429 L52.593541,41.3008429 L52.593541,41.3008429 Z" id="Fill-10" fill="#333333"></path>
                                <path d="M163.862471,29.7452874 L167.040012,29.7452874 L165.308078,18.273804 L163.862471,29.7452874 L163.862471,29.7452874 Z M175.625484,41.2973399 L168.703856,41.2973399 L168.026447,36.2889108 L163.035787,36.2889108 L162.972061,36.7959715 L162.470115,41.2973399 L155.441115,41.2973399 L159.478512,9.43921183 L170.892344,9.43921183 L175.625484,41.2973399 L175.625484,41.2973399 Z" id="Fill-11" fill="#333333"></path>
                            </g>
                        </g>
                    </g>
                </g>
            </g>
        </g>
    </g>
</svg>